<?xml version="1.0" encoding="UTF-8"?><svg id="Ebene_2" xmlns="http://www.w3.org/2000/svg" viewBox="0 0 124.04 120.56"><defs><style>.cls-1{fill:#faf9e2;}.cls-2{fill:#f4981a;}</style></defs><g id="Ebene_1-2"><g id="chilly"><path class="cls-2" d="m22.98,34.23c0,5.48-6.02,11.78-11.17,11.7C6.31,45.85.16,39.95,0,34.61c-.18-6,5.37-11.66,11.46-11.68,6.84-.02,11.52,4.58,11.51,11.3Z"/><g><path class="cls-1" d="m124.04,81.62c-6.8,9.08-13.18,17.57-19.52,26.09-2.61,3.51-5.09,7.12-7.76,10.59-1.56,2.03-2.57,3.82-5.22.09-8.66-12.2-17.98-23.95-27.72-36.76,6.05,0,11.33-.13,16.59.05,2.78.09,3.81-.74,3.72-3.63-.2-5.81.04-11.64-.11-17.45-.07-2.62.84-3.53,3.44-3.44,4.49.17,8.98.16,13.46.01,2.88-.1,3.78,1.11,3.72,3.85-.14,5.65.09,11.31-.08,16.95-.09,2.81.79,3.82,3.67,3.7,4.97-.2,9.95-.05,15.81-.05Z"/><path class="cls-2" d="m70.92,53.88c.81,14.79-10.9,23.24-22.29,23.66-11.08.41-22.99-8.83-22.72-23.3.22-12.29,10.03-22.04,22.25-22.34,12.45-.3,23.98,11.35,22.77,21.98Z"/><path class="cls-2" d="m59.93,98.43c-.03,6.25-5.8,11.63-12.31,11.45-5.47-.15-10.75-6.12-10.67-12.06.08-5.29,5.83-11.1,11.33-10.81,6.4.33,11.52,3.89,11.64,11.42Z"/><path class="cls-2" d="m97.89,34.08c0,5.52-5.82,11.79-11,11.86-5.69.08-12.54-6.59-11.86-12.2.69-5.7,4.31-10.66,11.23-10.79,6.87-.13,11.63,4.47,11.63,11.13Z"/><path class="cls-2" d="m48.8,0c6.42.04,11.1,4.45,11.13,10.49.04,6.53-4.95,11.56-11.55,11.47-7.68-.1-11.1-5.51-11.34-11.69C36.82,4.29,42.11-.05,48.8,0Z"/></g><path class="cls-2" d="m22.97,75.76c-.01,6.74-4.71,11.26-11.62,11.19-5.87-.06-11.2-5.35-11.35-11.27-.15-5.84,5.17-10.76,11.62-10.73,6.93.02,11.36,4.25,11.35,10.82Z"/></g></g></svg>