<?xml version="1.0" encoding="UTF-8"?><svg id="Ebene_2" xmlns="http://www.w3.org/2000/svg" viewBox="0 0 97.18 113.49"><defs><style>.cls-1{fill:#f0e511;}</style></defs><g id="Ebene_1-2"><path id="electro" class="cls-1" d="m32.71,113.3c1.42-6.67,2.81-13.41,4.3-20.12,1.19-5.36,2.48-10.7,3.75-16.04.61-2.54.08-3.82-2.9-4.48-12.98-2.86-25.89-6.06-37.85-8.9C21.07,42.68,42.43,21.32,63.75,0c.81,1.61-.92,4.04-1.4,6.36-2.01,9.85-4.15,19.68-6.77,29.38-1.12,4.14,1.63,4.34,3.84,4.87,11.69,2.84,23.42,5.51,35.17,8.14,2.23.5,3.77.82,1.4,3.19-20.35,20.32-40.69,40.66-61.03,61-.52.52-1.06.74-2.24.36Z"/></g></svg>