<?xml version="1.0" encoding="UTF-8"?><svg id="Ebene_2" xmlns="http://www.w3.org/2000/svg" viewBox="0 0 110.94 111.16"><defs><style>.cls-1{fill:#f3e60d;}.cls-2{fill:#7f7e7e;}</style></defs><g id="Ebene_1-2"><g id="enduring_1_5"><path class="cls-2" d="m110.38,62.97c-3.51,23.39-22.06,43.87-48.01,47.68-23.66,3.47-48.37-11.15-58.07-34.17C-.16,65.89-1.17,55.03,1.36,43.83c.36-1.62.55-3.28.82-4.92,12.7,3.57,25.26,7.59,37.66,12.1.01,1.5,0,3,.03,4.49.19,10.49,10.67,17.9,20.68,14.64,7.27-2.38,11.05-8.47,10.39-16.75-.57-7.24-5.94-12.21-14.81-13.71,0-13.19.01-26.38.01-39.57,36.14.29,58.68,33.26,54.24,62.86Z"/><path class="cls-1" d="m56.14.11c0,13.19-.01,26.38-.01,39.57-6.72.74-12.21,3.25-14.84,10.05-.2.54-.95.86-1.45,1.28-12.4-4.51-24.96-8.53-37.66-12.1,2.9-11.25,9.82-19.98,18.5-27.11C30.84,3.46,42.74-.77,56.14.11Z"/></g></g></svg>