<?xml version="1.0" encoding="UTF-8"?><svg id="Ebene_2" xmlns="http://www.w3.org/2000/svg" viewBox="0 0 111.24 111.01"><defs><style>.cls-1{fill:#f3e60d;}.cls-2{fill:#7f7e7e;}</style></defs><g id="Ebene_1-2"><g id="enduring_2_5"><path class="cls-2" d="m110.68,62.97c-3.34,22.34-20.88,43.78-47.6,47.44-14.16,1.94-27.81-.63-39.07-10.64,2.38-3.33,4.63-6.75,7.16-9.96,5.43-6.91,9.74-14.68,15.91-21.04,1.57.52,3.12,1.11,4.71,1.54,10.08,2.75,19.34-4.19,19.51-14.58.14-8.87-4.98-14.41-14.85-16.08V.08c35.76.25,58.72,32.92,54.23,62.89Z"/><path class="cls-1" d="m56.45.08c0,13.19,0,26.38-.01,39.57-1.26.32-2.52.61-3.78.95-9.91,2.69-14.2,10.18-11.41,19.85,1,3.46,4.17,5.35,5.83,8.32-6.17,6.36-10.48,14.13-15.91,21.04-2.53,3.21-4.78,6.63-7.16,9.96-3.81.57-5.8-2.67-7.66-4.66-7.54-8.04-13.48-16.95-15.34-28.38-2.75-16.93-.09-32.47,10.8-45.76C23.19,7.07,37.85-.9,56.45.08Z"/></g></g></svg>