<?xml version="1.0" encoding="UTF-8"?><svg id="Ebene_2" xmlns="http://www.w3.org/2000/svg" viewBox="0 0 111.43 111.1"><defs><style>.cls-1{fill:#5bb030;}.cls-2{fill:#7f7e7e;}</style></defs><g id="Ebene_1-2"><g id="energizing_4_5"><path class="cls-1" d="m108.13,37.84c4.46,8.35,3.35,17.43,2.65,26.18-.92,11.69-6.69,21.64-14.65,30.02-7.51,7.9-16.84,13.52-27.55,15.65-21.27,4.23-39.99-.9-54.68-17.47C2.13,78.94-1.9,63.42.81,45.86,4.37,22.8,24.03,3.64,48.3.15c2.6-.37,5.3.04,7.96.09,0,13.18,0,26.35-.01,39.53-4.35.85-8.59,1.62-11.79,5.34-5.63,6.55-5.25,15.76,1.27,21.9,5.93,5.59,14.41,5.08,20.71-.84,4.99-4.7,4.7-10.37,3.95-16.3,12.89-3.06,25.34-7.48,37.76-12.04Z"/><path class="cls-2" d="m108.13,37.84c-12.41,4.56-24.86,8.99-37.76,12.04-2.64-6.25-7.6-9.28-14.13-10.11,0-13.18,0-26.36.01-39.53,23.1.44,44.17,14.07,51.87,37.6Z"/></g></g></svg>