<?xml version="1.0" encoding="UTF-8"?><svg id="Ebene_2" xmlns="http://www.w3.org/2000/svg" viewBox="0 0 110.81 111.03"><defs><style>.cls-1{fill:#5bb030;}.cls-2{fill:#7f7e7e;}</style></defs><g id="Ebene_1-2"><g id="energizing_1_5"><path class="cls-2" d="m55.94.16c36.49.2,58.44,33.52,54.39,62.89-3.67,26.59-29.48,51.77-61.66,47.5C15.2,106.11-4.67,75.44.95,45.46c.42-2.26,1.15-4.46,1.74-6.68,12.31,4.19,24.94,7.42,37.04,12.23,0,1.5,0,3,.03,4.49.18,8.78,7.31,15.5,16.27,15.35,8.61-.15,14.86-6.65,14.88-15.48.02-8.51-5.19-13.96-14.98-15.67,0-13.18,0-26.36,0-39.54Z"/><path class="cls-1" d="m39.73,51.01c-12.1-4.81-24.73-8.04-37.04-12.23C6.23,24.23,15.62,14.28,28.12,6.91,36.66,1.88,45.91-.69,55.94.16c0,13.18,0,26.36,0,39.54-6.47.78-11.83,3.15-14.42,9.72-.26.66-1.17,1.06-1.77,1.58Z"/></g></g></svg>