<?xml version="1.0" encoding="UTF-8"?><svg id="Ebene_2" xmlns="http://www.w3.org/2000/svg" viewBox="0 0 111.68 110.94"><defs><style>.cls-1{fill:#5bb030;}.cls-2{fill:#7f7e7e;}</style></defs><g id="Ebene_1-2"><g id="energizing_2_5"><path class="cls-2" d="m56.78.05c36.45.18,58.74,33.6,54.34,62.79-3.4,22.57-20.86,43.71-47.51,47.53-14.5,2.08-28.06-1.53-39.98-10.4,1.34-.76,2.1-2.01,3.03-3.19,7.18-9.23,13.25-19.29,20.93-28.16,4.35,1.83,8.78,3,13.5,1.52,7.21-2.26,11.21-8.48,10.62-16.51-.55-7.44-5.92-12.49-14.93-14.04,0-13.18,0-26.36,0-39.54Z"/><path class="cls-1" d="m47.59,68.62c-7.68,8.86-13.74,18.92-20.93,28.16-.92,1.19-1.69,2.44-3.03,3.19-9.75-5.95-15.89-14.97-19.76-25.28-5.9-15.72-5.25-31.94,3.25-46.2C18.01,10.22,34.27-.87,56.78.05c0,13.18,0,26.36,0,39.54-1.12.25-2.25.46-3.36.76-11.35,2.99-15.76,13.38-9.82,23.35,1.07,1.79,2.64,3.29,3.98,4.92Z"/></g></g></svg>