<?xml version="1.0" encoding="UTF-8"?><svg id="Ebene_2" xmlns="http://www.w3.org/2000/svg" viewBox="0 0 111.36 111.14"><defs><style>.cls-1{fill:#5bb030;}.cls-2{fill:#7f7e7e;}</style></defs><g id="Ebene_1-2"><g id="energizing_3_5"><path class="cls-1" d="m88.35,100.66c-27.24,19.98-66.69,10.3-82.09-19.98C-6.91,54.78,1.38,25.16,24.81,9.11,34.17,2.69,44.77-.87,56.46.18c0,13.18,0,26.36,0,39.54-1.28.32-2.56.63-3.83.96-7.21,1.84-12.24,7.81-12.33,14.63-.09,6.39,5,12.47,11.58,14.91,5.32,1.97,9.51-.95,14.12-2.2,2.32,3.34,4.73,6.63,6.94,10.05,4.96,7.66,11.49,14.24,15.41,22.6Z"/><path class="cls-2" d="m88.35,100.66c-3.92-8.36-10.46-14.94-15.41-22.6-2.21-3.42-4.62-6.7-6.94-10.05,11.02-11.44,4.45-27.1-9.54-28.29,0-13.18,0-26.36,0-39.54,36.86.25,59.05,33.96,54.26,62.65-2.66,15.92-9.97,28.14-22.37,37.83Z"/></g></g></svg>