<?xml version="1.0" encoding="UTF-8"?><svg id="Ebene_2" xmlns="http://www.w3.org/2000/svg" viewBox="0 0 128.16 111.37"><defs><style>.cls-1{fill:#faf9e2;}.cls-2{fill:#5bb030;}</style></defs><g id="Ebene_1-2"><g id="energizing"><path class="cls-2" d="m.09,56.15C-1.49,26.45,25.63-.92,56.55.02c30.24.92,52.58,24.58,54.67,49.88,3.21,38.83-28.79,62.53-58.17,61.43C25.15,110.28-1.78,83.67.09,56.15Zm70.96-.29c.17-8.09-6.86-15.77-14.86-15.66-9.98.14-15.07,6.45-15.94,15.49-.75,7.77,7.21,15.24,15.01,15.39,8.27.15,15.62-6.92,15.79-15.22Z"/><path class="cls-1" d="m67.94,84.75c6.8-9.08,13.18-17.57,19.52-26.09,2.61-3.51,5.09-7.12,7.76-10.59,1.56-2.03,2.57-3.82,5.22-.09,8.66,12.2,17.98,23.95,27.72,36.76-6.05,0-11.33.13-16.59-.05-2.78-.09-3.81.74-3.72,3.63.2,5.81-.04,11.64.11,17.45.07,2.62-.84,3.53-3.44,3.44-4.49-.17-8.98-.16-13.46-.01-2.88.1-3.78-1.11-3.72-3.85.14-5.65-.09-11.31.08-16.95.09-2.81-.79-3.82-3.67-3.7-4.97.2-9.95.05-15.81.05Z"/></g></g></svg>