<?xml version="1.0" encoding="UTF-8"?><svg id="Ebene_2" xmlns="http://www.w3.org/2000/svg" viewBox="0 0 91.91 115.84"><defs><style>.cls-1{fill:#e8444b;}</style></defs><g id="Ebene_1-2"><path id="fireproof" class="cls-1" d="m91.86,69.13c.35,20.25-12.04,39.86-33.61,44.94-19.03,4.48-36.27.74-49.85-14.29-4.02-4.44-6.05-10.23-7.01-16.08-1.53-9.27-2.25-18.6.21-27.91,4.09-15.44,13.96-26.54,26.39-35.81,5.13-3.83,9.77-7.98,9-15.38-.21-1.99.3-4.1,2.83-4.48,2.47-.38,4.47.11,5.53,2.9,3.64,9.53,4.13,18.81-1.03,28.07-3.02,5.44-6.66,10.56-8.65,16.58-2.45,7.38,1.33,13.08,5.64,17.84,3.31,3.65,8.16,5.88,13.91,3.7,3.37-1.28,6.93-1.78,9.64-4.58,3.7-3.82,4.85-7.54,2.57-12.89-2.38-5.57-5.83-10.7-7.19-16.72-.79-3.49-.53-6.79,2.39-9.03,2.89-2.22,5.51.06,8.11,1.32,3.13,1.52,4.99,4.26,6.8,7.01,3.62,5.5,7.39,10.93,10.64,16.65,3.16,5.56,3.93,11.8,3.68,18.16Z"/></g></svg>