<?xml version="1.0" encoding="UTF-8"?><svg id="Ebene_2" xmlns="http://www.w3.org/2000/svg" viewBox="0 0 77.84 60.1"><defs><style>.cls-1{fill:#e62937;}.cls-2{fill:#7f7e7e;}</style></defs><g id="Ebene_1-2"><g id="haert_2_4"><path class="cls-1" d="m39.52,60.1c-.94-.19-2.09-.09-2.81-.6C23.2,49.92,11.5,38.5,2.66,24.46-.91,18.78-.63,12.19,2,6.21,4.41.73,10.38,1.05,15.21.22c7.23-1.24,12.46,3.03,17.57,7.34,2.23,1.89,3.46,4.95,6.67,5.69.02,15.62.04,31.24.07,46.85Z"/><path class="cls-2" d="m39.52,60.1c-.02-15.62-.04-31.24-.07-46.85,3.24-1.57,5.21-4.56,7.7-6.97,8.86-8.61,16.27-6.83,26.55-2.89,1.73.66,3.18,2.35,3.35,4.12.62,6.33,2.13,12.76-1.92,18.71-8.59,12.62-19.44,22.99-31.56,32.13-1.2.91-2.51,1.63-4.06,1.76Z"/></g></g></svg>