<?xml version="1.0" encoding="UTF-8"?><svg id="Ebene_2" xmlns="http://www.w3.org/2000/svg" viewBox="0 0 116.16 114.26"><defs><style>.cls-1{fill:#4382c3;}</style></defs><g id="Ebene_1-2"><path id="hasty" class="cls-1" d="m115.08,80.94c-6.21-5.45-12.58-10.73-18.55-16.42-2.78-2.64-4.13-.82-5.46.99-6.32,8.56-12.52,17.21-18.74,25.84-5.34,7.42-10.65,14.86-16.42,22.92-6.83-13.68-13.32-26.53-19.65-39.47-1.55-3.17-2.46-5.05-6.14-1.69-8.76,8.01-17.94,15.56-26.95,23.3-.95.82-1.9,1.63-3.16,2.2,1.9-6,5.26-11.18,8.08-16.64,7.58-14.63,15.05-29.32,22.54-44,1.52-2.98,2.48-4.57,5.07-.4,6.14,9.86,12.82,19.38,19.6,29.51,4.6-7.67,9.04-15.07,13.46-22.48.69-1.16.41-2.2-.62-3.1-6.58-5.76-13.16-11.54-20.32-17.83,8.93-3.13,17.46-6.13,25.99-9.11,14.07-4.9,27.9-10.49,42.25-14.56.03,25.41.07,50.83.07,76.24,0,1.61.36,3.36-1.03,4.7Z"/></g></svg>