<?xml version="1.0" encoding="UTF-8"?><svg id="Ebene_2" xmlns="http://www.w3.org/2000/svg" viewBox="0 0 78.41 59.98"><defs><style>.cls-1{fill:#f3e60d;}</style></defs><g id="Ebene_1-2"><path id="hearty" class="cls-1" d="m78.17,15.79c1.33,6.28-3.18,10.92-6.95,15.95-7.89,10.54-17.67,19.04-28.17,26.83-2.11,1.57-4.06,2.02-6.27.35C23.64,49,11.85,37.73,2.78,23.92-.59,18.79-.75,12.95,1.52,7.34,4.16.83,10.6.82,16.13.13c7.31-.92,12.84,3.24,17.75,8.05,6.43,6.29,5.15,6.52,11.7-.16,5.86-5.98,12.17-9.61,21.14-7.18,9.39,2.54,11.43,4.49,11.46,14.96Z"/></g></svg>