<?xml version="1.0" encoding="UTF-8"?><svg id="Ebene_2" xmlns="http://www.w3.org/2000/svg" viewBox="0 0 78.17 59.89"><defs><style>.cls-1{fill:#e62937;}.cls-2{fill:#7f7e7e;}</style></defs><g id="Ebene_1-2"><g id="heart_1_4"><path class="cls-2" d="m39.8,13.19c3.25-1.58,5.24-4.55,7.71-6.99,7.08-6.98,18.33-8.24,26.61-2.9,1.59,1.03,3.15,2.44,3.3,4.21.56,6.34,2.08,12.77-2.02,18.74-8.55,12.48-19.27,22.77-31.25,31.87-2.68,2.03-5.36,2.51-8.19.32-10.67-8.26-20.76-17.12-28.6-28.24,9.47-.06,18.94-.2,28.41-.11,2.98.03,4.2-.87,4.06-3.96-.19-4.31-.04-8.63-.04-12.94Z"/><path class="cls-1" d="m39.8,13.19c0,4.32-.15,8.64.04,12.94.14,3.09-1.08,3.99-4.06,3.96-9.47-.09-18.94.06-28.41.11C1.61,24.05-1.83,17.28,1.02,8.54c.99-3.03,2.63-5.17,5.6-6.36C16.63-1.81,25.45-.25,33.18,7.5c2.04,2.04,3.43,4.96,6.62,5.7Z"/></g></g></svg>