<?xml version="1.0" encoding="utf-8"?>
<!-- Generator: Adobe Illustrator 27.2.0, SVG Export Plug-In . SVG Version: 6.00 Build 0)  -->
<svg version="1.1" id="Ebene_2_00000122718286590704560170000016711518872071427230_"
	 xmlns="http://www.w3.org/2000/svg" xmlns:xlink="http://www.w3.org/1999/xlink" x="0px" y="0px" viewBox="0 0 77.8 60.1"
	 style="enable-background:new 0 0 77.8 60.1;" xml:space="preserve">
<style type="text/css">
	.st0{fill:#7F7E7E;}
</style>
<g id="Ebene_1-2">
	<path class="st0" d="M77,7.5c-0.2-1.8-1.6-3.5-3.3-4.1C63.4-0.6,56-2.3,47.2,6.3c-2.5,2.4-4.5,5.4-7.7,7c-3.2-0.7-4.4-3.8-6.7-5.7
		C27.7,3.2,22.4-1,15.2,0.2C10.4,1.1,4.4,0.7,2,6.2c-2.6,6-2.9,12.6,0.7,18.2c8.8,14,20.5,25.5,34.1,35c0.7,0.5,1.9,0.4,2.8,0.6l0,0
		c1.5-0.1,2.9-0.8,4.1-1.8c12.1-9.1,23-19.5,31.6-32.1C79.2,20.3,77.7,13.8,77,7.5z"/>
</g>
</svg>
