<?xml version="1.0" encoding="UTF-8"?><svg id="Ebene_2" xmlns="http://www.w3.org/2000/svg" viewBox="0 0 78.64 59.95"><defs><style>.cls-1{fill:#e62937;}.cls-2{fill:#7f7e7e;}</style></defs><g id="Ebene_1-2"><g id="hear_3_4"><path class="cls-1" d="m72.06,30.26c-8.31,10.73-17.61,20.43-28.8,28.26-2.8,1.96-4.86,1.87-7.51-.12C22.87,48.7,11.42,37.66,2.7,23.99-.77,18.54-.68,12.74,1.76,7.03,4.35.97,10.47,1.12,15.63.23c7.21-1.25,12.53,2.88,17.61,7.31,2.21,1.92,3.47,4.97,6.68,5.71,0,4.13.18,8.26-.05,12.38-.19,3.39.89,4.62,4.43,4.55,9.25-.17,18.51.03,27.76.08Z"/><path class="cls-2" d="m72.06,30.26c-9.25-.05-18.51-.25-27.76-.08-3.54.07-4.63-1.17-4.43-4.55.23-4.11.05-8.25.05-12.38,3.32-1.52,5.04-4.74,7.56-7.1,7.31-6.84,18.36-8.07,26.67-2.84,1.6,1.01,2.73,2.42,3.42,4.16,2.71,6.84.07,17.69-5.52,22.79Z"/></g></g></svg>