<?xml version="1.0" encoding="UTF-8"?><svg id="Ebene_2" xmlns="http://www.w3.org/2000/svg" viewBox="0 0 66.24 83.53"><defs><style>.cls-1{fill:#fdfbea;}</style></defs><g id="Ebene_1-2"><g id="inventory"><path class="cls-1" d="m34.94,83.46c-11.8-1.13-21.55-2.36-29.06-10.15C.6,67.84-.96,61.03.54,54.26c1.88-8.51,6.47-15.91,14.09-20.89,2.52-1.65,5.38-1.14,8.14-1.23,2.7-.09,4.92-.21,5.92,3.45.64,2.35,7.64,2.09,9.28,0,2.89-3.66,9.47-5.11,13.36-2.27,8.44,6.16,14.08,14.17,14.86,25.02.66,9.21-5.68,17.4-15.93,21.72-2.06.87-4.28,1.89-6.43,1.9-3.64.02-7.04,1.98-8.89,1.5Z"/><path class="cls-1" d="m28.21,19.52c-.64-4.46.53-9.56,2.1-14.55,1.39-4.45,4.65-6.03,8.83-4.25,5.89,2.51,11.44,5.6,15.7,10.59,3.78,4.44,3.12,8.12-2.44,9.61-5.37,1.44-9.9,3.21-13.09,8.3-1.88,3-6.13,2.41-9.24,1.68-3.09-.72-1.57-3.9-1.82-6.04-.17-1.48-.03-2.99-.03-5.35Z"/></g></g></svg>