<?xml version="1.0" encoding="utf-8"?>
<!-- Generator: Adobe Illustrator 27.2.0, SVG Export Plug-In . SVG Version: 6.00 Build 0)  -->
<svg version="1.1" id="Ebene_2_00000053541261700168774530000007731523859178107537_"
	 xmlns="http://www.w3.org/2000/svg" xmlns:xlink="http://www.w3.org/1999/xlink" x="0px" y="0px" viewBox="0 0 66.2 83.5"
	 style="enable-background:new 0 0 66.2 83.5;" xml:space="preserve">
<style type="text/css">
	.st0{fill:#FDFBEA;}
</style>
<g id="Ebene_1-2">
	<g id="inventory">
		<path class="st0" d="M34.9,83.5c-11.8-1.1-21.5-2.4-29.1-10.2C0.6,67.8-1,61,0.5,54.3C2.4,45.7,7,38.3,14.6,33.4
			c2.5-1.6,5.4-1.1,8.1-1.2c2.7-0.1,4.9-0.2,5.9,3.5c0.6,2.3,7.6,2.1,9.3,0c2.9-3.7,9.5-5.1,13.4-2.3c8.4,6.2,14.1,14.2,14.9,25
			c0.7,9.2-5.7,17.4-15.9,21.7c-2.1,0.9-4.3,1.9-6.4,1.9C40.2,82,36.8,83.9,34.9,83.5z"/>
		<path class="st0" d="M28.2,19.5C27.6,15.1,28.7,10,30.3,5c1.4-4.4,4.6-6,8.8-4.2C45,3.2,50.6,6.3,54.8,11.3
			c3.8,4.4,3.1,8.1-2.4,9.6c-5.4,1.4-9.9,3.2-13.1,8.3c-1.9,3-6.1,2.4-9.2,1.7c-3.1-0.7-1.6-3.9-1.8-6
			C28.1,23.4,28.2,21.9,28.2,19.5L28.2,19.5z"/>
	</g>
</g>
</svg>
