<?xml version="1.0" encoding="UTF-8"?><svg id="Ebene_2" xmlns="http://www.w3.org/2000/svg" viewBox="0 0 125.24 103.89"><defs><style>.cls-1{fill:#f3f3cf;}</style></defs><g id="Ebene_1-2"><g id="mighty"><path class="cls-1" d="m47.57,70.6s-4.81-5.14-7.21-7.72c8.7-8.56,25.65-25.22,25.65-25.22l-6.6-6.71s-16.54,16.87-25.41,25.92c-3.26-3.4-5.76-6.02-8.57-8.96.68-.78,1.56-1.93,2.58-2.95C41.65,31.29,69.05,4.05,69.05,4.05c0,0,4.15-2.69,6.37-2.91,6.6-.66,13.25-.76,20.92-1.13-.42,8.04-1.29,23.14-1.29,23.14,0,0-1.02,1.66-1.71,2.34-14.61,14.6-29.24,29.18-43.88,43.76-.46.46-1.9,1.36-1.9,1.36Z"/><path class="cls-1" d="m105.34,80.1v23.79h-20.72v-23.49h-20.07c10.48-14.01,20.17-26.97,30.42-40.68,10.13,13.51,19.85,26.48,30.26,40.37h-19.9Z"/><path class="cls-1" d="m27.2,76.78c-4.39,4.65-8.86,8.92-12.76,13.66-3.83,4.66-8.61,4.85-14.15,4.42-.64-5.6-.63-10.43,4.32-14.41,4.76-3.83,8.88-8.46,13.26-12.72-3.68-7.11-14.07-9.8-11.41-20.21,4.58-.12,8.43.68,11.89,4.36,8.09,8.6,16.47,16.95,25.05,25.06,3.51,3.32,4.82,6.9,4.23,11.69-9.93,2.13-13.32-7.04-20.43-11.87Z"/></g></g></svg>