<?xml version="1.0" encoding="UTF-8"?><svg id="Ebene_2" xmlns="http://www.w3.org/2000/svg" viewBox="0 0 75.55 125.33"><defs><style>.cls-1{fill:#f3f3cf;}</style></defs><g id="Ebene_1-2"><g id="rupee"><polygon class="cls-1" points="37.78 36.55 53.52 49.61 53.52 75.72 37.78 88.77 22.03 75.72 22.03 49.61 37.78 36.55"/><path class="cls-1" d="m37.78,0L0,31.33v62.67l37.78,31.33,37.77-31.33V31.33L37.78,0Zm21.66,80.63l-21.66,17.98-21.67-17.98v-35.94l21.67-17.97,21.66,17.97v35.94Z"/><polygon class="cls-1" points="53.52 49.61 53.52 75.72 37.78 88.77 22.03 75.72 22.03 49.61 37.78 36.55 53.52 49.61"/><polygon class="cls-1" points="53.52 49.61 53.52 75.72 37.78 88.77 22.03 75.72 22.03 49.61 37.78 36.55 53.52 49.61"/></g></g></svg>