<?xml version="1.0" encoding="UTF-8"?><svg id="Ebene_2" xmlns="http://www.w3.org/2000/svg" viewBox="0 0 105.11 90.81"><defs><style>.cls-1{fill:#8b559e;}</style></defs><g id="Ebene_1-2"><g id="sneaky"><path class="cls-1" d="m105.07,65.31c-.12,8.56-.79,9.46-9.19,11.74-3.66.99-4.84,4.12-6.36,7-3.54,6.68-8.83,8.52-14.44,5.03-2.39-1.49-3.25-3.94-4.35-6.35-1.79-3.88-4.61-6.09-9.35-5.76-4.44.3-7.1,2.31-8.25,6.44-1.41,5.06-5.38,7.18-9.9,7.32-4.02.12-6.94-2.83-8.6-6.54-1.86-4.16-4.09-7.39-9.44-7.21-3.9.13-6.54,1.25-8.1,5.06-1.63,3.97-3.44,7.66-8.82,8.19-3.73.36-5.74-1.22-6.89-3.99-2.13-5.1-1.76-10.3.77-15.26.87-1.7,2.14-2.77,4.22-3.01,4.83-.56,8.12-3.11,9.75-7.83,1.55-4.48,4.75-6.31,9.57-6.13,4.89.18,7.76,2.76,9.23,6.92,1.44,4.09,4.39,6.62,8.21,6.88,4.15.27,7.21-2.5,9.17-6.35,1.76-3.44,2.99-7.38,8.15-7.5,5.2-.12,8.66,1.48,10.87,6.56,2.88,6.62,7.81,8.8,12.79,6.43,2.71-1.29,3.92-3.81,5.16-6.38,1.36-2.82,3.02-5.67,6.39-6.41,5.39-1.18,8.83,1.53,9.37,7.16.12,1.32.02,2.66.02,3.99Z"/><path class="cls-1" d="m105.02,10.91c-.11,8.98-.79,9.75-9.63,12.29-3.57,1.03-4.58,4.48-6.13,7.33-3.21,5.94-8.13,7.54-13.8,4.74-2.51-1.24-3.39-3.46-4.4-5.65-1.75-3.79-3.84-6.48-8.72-6.66-5.06-.19-7.63,2.07-9.33,6.33-1.79,4.49-5.21,7.6-9.98,7.49-4.44-.11-7.18-3.56-8.94-7.57-1.61-3.66-3.63-6.34-8.44-6.24-4.63.09-7.48,1.63-8.98,6.04-.57,1.66-1.67,3.21-2.79,4.6-3.42,4.26-10.44,3.18-12.46-1.85-1.81-4.5-1.8-9.03.06-13.47.89-2.13,2.06-3.98,4.92-4.28,4.65-.49,7.91-3.31,9.52-7.58C17.92,1.12,21.8-.2,26.92.06c4.61.23,6.7,3.39,8.03,7,1.49,4.03,4.4,6.55,8.21,6.8,4.18.27,7.2-2.55,9.18-6.36C54.11,4.06,55.32.17,60.51.02c5.27-.15,8.67,1.52,10.86,6.55,2.65,6.08,6.79,7.98,11.93,6.54,3.27-.92,4.47-3.56,5.86-6.24,1.58-3.05,3.18-6.31,7.21-6.76,6.74-.74,8.77,1.82,8.66,10.78Z"/></g></g></svg>