<?xml version="1.0" encoding="UTF-8"?><svg id="Ebene_2" xmlns="http://www.w3.org/2000/svg" viewBox="0 0 124.45 122.39"><defs><style>.cls-1{fill:#faf9e2;}.cls-2{fill:#aedce8;}</style></defs><g id="Ebene_1-2"><g id="spicy"><path class="cls-2" d="m77.43,82.18c-5.79-3.43-11.58-6.85-18.18-10.76,0,9.76-.03,18.52.01,27.28.02,4.57-2.11,8.15-6.06,9.78-3.62,1.5-7.67,1.38-11.12-1.42-2.13-1.73-2.72-3.87-2.7-6.5.08-8.32-.14-16.65.09-24.96.12-4.28-1.65-3.93-4.34-2.36-6.75,3.93-13.57,7.76-20.2,11.89-5.03,3.13-10.54,2.21-13.54-3.38-2.53-4.71-1.14-10.82,3.55-13.53,7.83-4.52,15.69-9.01,24.3-13.95-8.48-4.98-16.25-9.54-24.02-14.09C.67,37.52-1.32,31.52.94,27.2c2.65-5.06,7.96-6.84,13.38-4,6.63,3.48,13.02,7.41,19.56,11.05,5.5,3.07,5.54,3.01,5.54-3,0-7.66-.01-15.31,0-22.97,0-5.63,2.46-7.69,7.92-8.19,9.08-.82,12.2,3.13,11.97,12.35-.19,7.48-.02,14.98.01,22.47,0,.31.18.62.41,1.34,6.48-2.69,12.01-7,18.16-10.15,2.59-1.33,5.08-3.14,7.83-3.82,5.92-1.46,9.59.85,11.94,6.74,1.76,4.41.51,7.75-4.7,10.89-7.79,4.71-15.75,9.15-24.5,14.2,5.65,2.85,9.73,7.15,15.75,7.96.06,4.3.17,8.6.18,12.9.02,7.15,0,7.15-6.97,7.19Z"/><path class="cls-1" d="m77.43,82.18c6.96-.03,6.99-.03,6.97-7.19-.01-4.3-.12-8.6-.18-12.9-.24-2.66.22-4.33,3.66-3.99,5.58.55,11.24-.49,16.83.52,0,0,.07.19.07.19.08,6.48.37,12.96.15,19.43-.11,3.41,1.11,4.21,4.24,4.05,4.75-.23,9.52-.06,15.28-.06-10.24,13.69-19.92,26.63-30.05,40.16-9.75-12.94-19.42-25.77-29.27-38.83,4.56-1.24,8.64.84,12.3-1.38Z"/><polygon class="cls-2" points="104.78 58.81 104.71 58.62 104.93 58.65 104.78 58.81"/></g></g></svg>