<?xml version="1.0" encoding="UTF-8"?><svg id="Ebene_2" xmlns="http://www.w3.org/2000/svg" viewBox="0 0 132.14 105.37"><defs><style>.cls-1{fill:#faf9e2;}.cls-2{fill:#f3f3cf;}</style></defs><g id="Ebene_1-2"><g id="tough"><path class="cls-2" d="m112.15,21.46c-7.99-5.64-15.81-11.53-23.82-17.13-7.13-4.99-7.2-4.88-13.46.62-.37.33-.66.79-1.08,1.04-6.86,4.09-13.6,8.23-22.3,5.52-6.36-1.98-12.06-4.89-16.67-9.71-1.83-1.91-2.9-2.6-5.53-.58C20.27,8.14,10.88,14.57,1.66,21.24c-1.89,1.37-2.32,2.84-.5,4.95,4.52,5.22,8.97,10.52,13.09,16.06,2.93,3.94,5.28,3.18,8.2.18,1.12-1.15,1.9-3.27,4.53-2.66.02,3.95-.77,7.87-1.27,11.69-1.64,12.45-3.1,24.92-5.03,37.31-.83,5.3,1.64,4.29,4.45,4.3,22.29.08,44.58.16,66.87.23.82-1.16.8-2.49.85-3.82.31-7.67-.1-8.11-7.92-8.12-1.99,0-3.99.09-5.98-.03-1.6-.09-3.8.84-4.64-.69-.87-1.58,1.06-2.9,2.01-4.19,3.95-5.33,7.97-10.61,11.92-15.95.67-.91,1.09-2,1.63-3-3.36-4.57-1.48-10.15-2.9-15.13-.63-2.21,1.18-2.51,2.72-1.46,1.36.93,2.46,2.23,3.62,3.43,1.49,1.55,2.93,1.39,4.21-.16,5.13-6.23,10.23-12.49,15.33-18.74,1.31-1.6,1.1-2.71-.7-3.98Zm-55.14,38.91c-3.72.1-7.2-3.64-7.16-7.68.05-4.69,2.46-7.33,6.65-7.3,3.79.02,7.36,3.37,7.39,6.93.04,4.2-3.16,7.95-6.88,8.05Zm-.42-20.98c-3.56-.19-6.77-3.8-6.74-7.6.03-4.69,2.38-7.34,6.56-7.38,4.01-.03,7.6,3.48,7.48,7.33-.13,4.16-3.64,7.85-7.3,7.65Z"/><path class="cls-1" d="m92,93.3c.82-1.15.8-2.49.85-3.82.31-7.67-.1-8.1-7.92-8.12-1.99,0-3.99.09-5.98-.03-1.6-.09-3.79.84-4.64-.69-.87-1.58,1.06-2.9,2.01-4.18,3.95-5.33,7.97-10.62,11.92-15.95.67-.91,1.1-2,1.64-3.01,3.1-4,6.57-7.79,9.2-12.08,2.25-3.68,3.75-3.36,5.98-.3,6.28,8.61,12.59,17.19,18.94,25.75,2.43,3.27,4.98,6.44,8.13,10.49-5.8,0-10.83.16-15.85-.06-2.86-.13-3.65.84-3.59,3.63.14,6.48-.05,12.96-.11,19.44-.24.25-.48.51-.72.76-5.73.07-11.47.07-17.2.23-2.06.06-2.99-.49-2.85-2.73.2-3.1.13-6.22.17-9.34Z"/><path class="cls-2" d="m111.88,105.14c.24-.25.48-.51.72-.76.22.68-.07.89-.72.76Z"/></g></g></svg>