<?xml version="1.0" encoding="UTF-8"?><svg id="Ebene_2" xmlns="http://www.w3.org/2000/svg" viewBox="0 0 132.22 99.55"><defs><style>.cls-1{fill:#fbfbfb;}</style></defs><g id="Ebene_1-2"><g id="caret"><path class="cls-1" d="m126.99,0H5.26C1.06,0-1.46,4.74.92,8.22l60.88,89.05c2.05,3.05,6.56,3.05,8.65,0L131.3,8.22c2.39-3.48-.1-8.22-4.31-8.22Zm-22.53,20.88l-35.46,53.82c-1.36,2.09-4.41,2.09-5.77,0L27.8,20.88c-1.52-2.32.13-5.37,2.88-5.37h70.85c2.75,0,4.41,3.05,2.92,5.37Z"/><path class="cls-1" d="m89.17,21.78h-46.09c-2.58,0-4.13,2.98-2.73,5.18l23.06,36.13c1.27,1.98,4.13,1.98,5.4,0l23.06-36.13c1.43-2.21-.12-5.18-2.7-5.18Z"/></g></g></svg>