<?xml version="1.0" encoding="UTF-8"?>
<svg id="Ebene_2" data-name="Ebene 2" xmlns="http://www.w3.org/2000/svg" viewBox="0 0 137.47 145.85">
  <g id="Ebene_1-2" data-name="Ebene 1">
    <g id="ingredient">
      <path d="M64.64,43.07h4.09v.06h4.09c.88,0,1.59-.71,1.59-1.59V4.16c0-2.26-1.83-4.1-4.1-4.1h-1.58v-.06h-1.58c-2.26,0-4.1,1.83-4.1,4.1V41.49c0,.88,.71,1.59,1.59,1.59Z"/>
      <path d="M112.45,26.63c-4.1-1.61-11.03-1.55-14.33-1.4-3.3,.15-16.2-.36-16.2,8.8-.22,1.48-.17,2.54,0,3.3,.22,1.04,1.34,1.62,2.33,1.26,2.17-.8,6.69-2.15,11.04-1.45,2.97,.48,5.59,2.39,6.68,5.2s.58,6.31-7.58,7.72c-13.19,2.28-22.62,2.29-25.05,2.25-.41,0-.83,0-1.24,0-2.45,.03-11.87-.03-25.03-2.3-8.16-1.41-8.66-4.95-7.58-7.72s3.71-4.72,6.68-5.2c4.35-.7,8.88,.65,11.04,1.45,1,.37,2.11-.22,2.33-1.26,.16-.76,.22-1.82,0-3.3,0-9.16-12.9-8.65-16.2-8.8-3.3-.15-10.23-.2-14.33,1.4-7.15,1.97-34.85,17.57-21.37,69.97,13.48,52.4,65.09,49.27,65.09,49.27,0,0,51.6,3.19,65.09-49.21,13.48-52.4-14.22-68-21.37-69.97Z"/>
    </g>
  </g>
</svg>