<?xml version="1.0" encoding="utf-8"?>
<!-- Generator: Adobe Illustrator 27.2.0, SVG Export Plug-In . SVG Version: 6.00 Build 0)  -->
<svg version="1.1" id="Ebene_2_00000096761602195567228780000004115253744873295492_"
	 xmlns="http://www.w3.org/2000/svg" xmlns:xlink="http://www.w3.org/1999/xlink" x="0px" y="0px" viewBox="0 0 154.7 132.1"
	 style="enable-background:new 0 0 154.7 132.1;" xml:space="preserve">
<style type="text/css">
	.st0{opacity:0.12;}
	.st1{fill:#FAFAFA;}
</style>
<g id="Ebene_1-2" class="st0">
	<g id="pot">
		<path class="st1" d="M148.6,46.5H6c-3.3,0-6,2.7-6,6v5.4c0,3.3,2.7,6,6,6h12.3v53.9c0,7.9,6.4,14.3,14.3,14.3h88.2
			c7.9,0,14.3-6.4,14.3-14.3V63.9h13.5c3.3,0,6-2.7,6-6v-5.4C154.7,49.2,152,46.5,148.6,46.5L148.6,46.5z"/>
		<path class="st1" d="M19.3,40.2h116c1.2,0,2.1-1,2.1-2.2v-2.3c0-6.6-5.3-11.9-11.9-11.9h-20C104.8,9.3,92.6,0,77.5,0
			S49.9,9.3,49,23.8h-20c-6.6,0-11.9,5.3-11.9,11.9V38C17.2,39.2,18.1,40.2,19.3,40.2L19.3,40.2z M77.3,11.9
			c6.7,0,12.3,4.9,14.1,11.7H63.2C65,16.8,70.7,11.9,77.3,11.9z"/>
	</g>
</g>
</svg>
