<?xml version="1.0" encoding="UTF-8"?><svg id="Ebene_2" xmlns="http://www.w3.org/2000/svg" viewBox="0 0 154.67 132.12"><defs><style>.cls-1{fill:#fbfbfb;}</style></defs><g id="Ebene_1-2"><g id="pot"><path class="cls-1" d="m148.65,46.47H6.02c-3.32,0-6.02,2.69-6.02,6.02v5.44c0,3.32,2.69,6.02,6.02,6.02h12.31v53.85c0,7.91,6.41,14.32,14.32,14.32h88.22c7.91,0,14.32-6.41,14.32-14.32v-53.85h13.46c3.32,0,6.02-2.69,6.02-6.02v-5.44c0-3.32-2.69-6.02-6.02-6.02Z"/><path class="cls-1" d="m19.33,40.17h116c1.19,0,2.15-.96,2.15-2.15v-2.29c0-6.56-5.32-11.88-11.88-11.88h-19.96c-.83-14.53-13.02-23.85-28.14-23.85s-27.64,9.32-28.48,23.85h-19.95c-6.56,0-11.88,5.32-11.88,11.88v2.29c0,1.19.96,2.15,2.15,2.15Zm58-28.29c6.66,0,12.3,4.95,14.13,11.75h-28.26c1.84-6.8,7.47-11.75,14.13-11.75Z"/></g></g></svg>