<?xml version="1.0" encoding="utf-8"?>
<!-- Generator: Adobe Illustrator 27.3.1, SVG Export Plug-In . SVG Version: 6.00 Build 0)  -->
<svg version="1.1" id="visual" xmlns="http://www.w3.org/2000/svg" xmlns:xlink="http://www.w3.org/1999/xlink" x="0px" y="0px"
	 viewBox="0 0 600 600" style="enable-background:new 0 0 600 600;" xml:space="preserve">
<g>
	<path d="M552.8,414.8c-8.8,18-28.6,25.9-47.6,28.4c-103.3,14.1-147.4-91.5-192.5-163.5c-11.9-19.1-20-24-46.7-24.8
		c-1.2,0-2.4,0.1-3.6,0.4c-22.8,5.8-26.6,18-26.6,59.4v209c0,39.7,5.2,48.9,42.4,49.6c0.7,0,47.7,0.7,51.5,0.7
		c33.3,0,43.1-3.9,58.2-20.3c14.4-15.1,26.5-24,36-45.6c3.3-7.5,5.5-15.5,6-23.8c0.8-12.4-2.3-20.7-5.7-26c-1.2-1.7,1-3.8,2.8-2.8
		c29.1,17.9,20.4,49.4,20.4,49.4c-3.5,17.3-18,56.5-26.3,83.8c-2.1,6.7-8.2,11.2-15.1,11.2H50.4c-4.3,0-4.6-6.1-0.4-6.7l65.4-8.4
		c59.4-5.9,64.1-12.4,64.1-67.8V309.6c-0.5-48-7.4-53.5-51.5-58.2c-7.5-0.8-15.1-0.4-22.4,1.7c-11.8,3.6-19.3,10.1-23.8,15.7
		c-2.1,2.5-6.1,0.7-5.5-2.5c2.4-14.2,12.8-25.3,26.2-30.1c11.9-4.4,25.6-3.2,38.2-3.3c13.5-0.2,27.1-0.1,40.7-0.1
		c28.5,0.1,57,0,85.5,0c4.5,0,8.8-0.1,12.8-0.2c26.7-1.3,44.7-6.8,58.9-18.7c25.4-18.9,35.8-45,35.8-80.2
		c0-69.8-46.3-95.3-96.5-95.3c-18.9,0-29.9,2.5-34.5,6.5c-5.9,4.6-7.7,11.1-7.7,28v96.9c0,13.6,7.6,26.2,20,32.1
		c0.2,0.1,0.4,0.2,0.7,0.2c4,2,2.8,8.1-1.7,8.1h-93.8c-4.5,0-5.9-6.1-1.7-8.1c0.2-0.1,0.5-0.2,0.8-0.4c12.2-5.9,20-18.4,20-32.1
		V95.4c-0.1-53.7-7.7-55.8-58.8-61.4c0,0-30.8-2-39.4-30.1c-0.9-3.1,2.9-5.2,5.2-2.9c4.4,4.6,11.1,9.4,22,12.4
		c6.2,1.7,12.7,2.4,19.1,2.4h159.5c47.6,0,79.5,5.9,104.3,22.3c26.7,17,44.4,46.3,44.4,86c0,49.2-27.6,82.2-66.9,103.8
		c-9.2,5-12.5,16.6-7,25.5c13.9,22.4,33.8,53.5,49,76.2c24.1,34.5,36.6,50.8,51.5,67.2c12.1,13.2,23.1,20.6,33.7,25.2
		c9.9,4.5,21.2,6.1,32,3.8c10.6-2.3,17.8-7.4,22.3-12.5C551.4,411.6,553.7,413.2,552.8,414.8z"/>
</g>
</svg>
