<?xml version="1.0" encoding="UTF-8"?><svg id="Ebene_1" xmlns="http://www.w3.org/2000/svg" viewBox="0 0 2561.53 1665.21"><path d="m1728.04,925.92c.91-17.77,8.96-38.16,20.34-51.9,23.41-28.29,51.6-52.5,77.12-79.08,18.78-19.58,41.03-26.93,67.86-26.23,83.87,2.27,167.88.81,251.55,6.14,46.97,2.97,79.59-10.72,111.75-45.2,96.05-103.1,195.92-202.62,293.58-304.25,7-7.3,13.49-22.15,10.57-29.85-2.62-7.05-18.12-12.18-28.39-12.99-37.6-2.92-75.36-3.37-113.06-5.29-159.98-8.2-319.91-17.17-479.99-24.11-14.7-.6-32.97,7.35-44.3,17.32-31.41,27.69-61.31,57.34-89.3,88.45-22.9,25.47-50.34,34.58-82.86,34.03-124.14-2.01-248.27-5.89-372.41-5.13-55.47.35-94.24-21.24-129.98-61.77-88.7-100.43-181.42-197.33-270.83-297.2-53.71-60.01-115.93-102.24-196.27-118.05-91.01-17.92-178.25-18.22-259,35.79-48.33,32.37-85.83,74.65-116.99,123.08-53.66,83.51-64.79,178.55-73.34,274.1-.6,6.95,5.19,15.55,10.07,21.75,18.63,23.76,38.26,46.66,57.19,70.17,16.16,20.14,18.88,42.89,9.36,66.35-9.41,23.21-29.8,30.35-52.86,31.71-10.07.55-20.14.65-30.2.45-86.38-1.56-172.76-3.42-259.15-4.83-35.89-.55-41.88,6.8-37.05,46.11,6.24.6,11.18,1.41,16.11,1.51,162.75,3.02,325.44,7.2,488.14,8.15,44.85.25,81.45,12.64,114.67,41.78,8.51,7.5,25.37,12.69,35.69,9.67,37.75-11.08,48.73-49.28,24.57-80.14-12.89-16.46-29.8-30.15-40.73-47.67-8.05-12.89-16.86-33.78-11.58-44.2,6.29-12.48,26.38-22.6,41.83-25.02,38.26-5.99,64.08,18.27,87.99,44.3,42.99,47.02,87.04,93.08,129.32,140.7,20.19,22.7,45.71,41.98,48.93,76.77,5.39,59-1.86,112.31-54.01,150.21-6.09,4.38-11.02,10.32-16.51,15.5-30.51,28.69-51.8,29.2-82.41-.65-22.8-22.2-43.24-46.82-65.59-69.52-25.57-26.03-53.31-29.95-80.54-6.34-33.17,28.79-66.5,27.99-105.21,15.05-78.18-26.03-156.05-20.34-230.55,13.69-232.06,106.01-291.41,414.39-115.68,602.16,186.16,198.94,495.69,120.26,570.09-120.46,16.11-52.05,21.04-108.68,23.41-163.55,2.67-60.61,23.21-106.32,68.26-148.8,42.69-40.27,80.14-27.69,109.04,5.24,44.8,51.04,91.37,100.48,138.48,149.41,8.26,8.61,22.45,15.3,34.38,16.06,144.78,9.26,289.6,17.67,434.43,25.32,53.61,2.82,107.37,2.01,160.99,4.88,40.62,2.16,51.4,14.4,61.82,53.21,10.17,37.96,18.98,77.22,35.79,112.36,60.26,125.8,156.96,204.33,300.68,209.86,170.9,6.54,319.35-111.7,359.83-282.15,40.02-168.18-42.89-344.02-196.53-416.96-158.97-75.46-340.8-26.28-438.51,120.51-19.28,29-31.71,62.52-47.77,93.73-10.47,20.29-26.18,34.18-50.39,27.44-24.77-6.85-28.69-27.79-28.19-50.19,1.86-77.17,2.47-154.34,6.34-231.41Zm-1292.87,498.16c-86.94.5-158.07-70.32-158.52-157.91-.45-87.19,70.32-158.47,157.66-158.72,87.04-.3,158.62,70.83,158.82,157.86.2,87.09-70.53,158.22-157.97,158.77Zm1714.81-280.99c86.79-.45,158.77,70.93,159.12,157.81.35,86.99-70.88,158.57-157.97,158.77-87.69.15-158.07-69.77-158.52-157.66-.5-87.49,69.77-158.47,157.36-158.92Zm-495.14-32.47h-1.21c0,18.42,1.11,36.85-.25,55.17-2.27,31.41-20.99,48.73-51.85,49.94-34.08,1.36-61.46-16.66-65.54-45.76-8.2-58.95,8.66-109.24,56.18-147.09,27.23-21.75,57.84-9.77,62.22,25.17,2.57,20.59.45,41.73.45,62.57Z"/></svg>