<?xml version="1.0" encoding="UTF-8"?><svg id="Ebene_2" xmlns="http://www.w3.org/2000/svg" viewBox="0 0 165.47 167.48"><g id="Ebene_1-2"><g id="vah_naboris"><path d="m164.34,79.66c-2.48-.25-4.96-.57-7.45-.63-4.24-.1-8.48-.03-12.72-.01-.66,0-1.13.03-1.26-.9-1.02-7.25-3.49-13.89-8.55-19.37-1.52-1.65-2.98-3.38-4.65-4.86-6.93-6.11-14.84-9.8-24.3-9.56-1.04.03-2.07,0-3.11,0,.1-.4.18-.51.29-.54,4.45-1.5,9.01-2.58,13.7-1.79,4.14.7,8.37,1.4,11.4,4.93.48.56,1.93.46,2.91.38,1-.08,1.01-1.07,1.11-1.85.15-1.18.48-2.2,1.44-3.04.64-.55,1.11-1.35,1.5-2.12.96-1.87.54-3.14-1.34-4.07-.62-.31-.76-.68-.77-1.35-.03-1.7-.08-3.41-.34-5.08-.67-4.46-2.45-8.27-6.32-10.98-3.67-2.56-7.72-2.82-11.93-2.47-3.87.32-6.55,2.37-7.89,5.93-.75,1.99-1.19,4.13-1.54,6.24-.34,1.98-.39,4.01-.56,6.06h-11.94c-.08-.93-.13-1.8-.22-2.66-.33-3.25-.4-6.54-1.73-9.62-1.49-3.44-3.98-5.56-7.79-5.93-1.4-.13-2.83-.16-4.24-.1-5.6.27-9.8,2.85-12.43,7.81-1.72,3.24-2.05,6.8-2.06,10.39,0,.9-.23,1.5-1.13,1.95-1.5.74-1.83,1.77-1.19,3.31.35.83.91,1.58,1.32,2.39.26.5.55,1.05.59,1.59.19,2.4.42,4.81.38,7.2-.03,1.58-.25,3.25-.82,4.72-1.41,3.62-2.98,7.2-4.68,10.7-.88,1.82-.92,3.43-.32,5.34,1.86,5.87,3.02,11.89,3.18,18.06.06,2.3,0,4.6,0,6.89.14.03.28.06.42.09,1.84-5.05,3.81-10.03,8.28-13.73,0,1.91.06,3.64-.03,5.36-.04.7-.24,1.5-.66,2.04-2.05,2.67-2.9,5.75-2.65,8.98.19,2.39-.07,4.25-1.93,5.97-1.4,1.3-.72,2.84,1.21,3.17.56.1,1.18.09,1.73-.05,1.68-.44,3.37-.9,5-1.49,5.02-1.83,9.98-1.86,14.97.14,1.53.61,3.15,1.13,4.78,1.35.97.13,2.09-.26,3.02-.69.76-.35.89-1.16.29-1.9-.63-.77-1.36-1.47-1.9-2.3-.35-.53-.66-1.26-.59-1.86.39-3.47-.08-6.77-1.59-9.93-.1-.2-.12-.44-.25-.96,2.1,1.14,3.39,2.68,4.32,4.48.93,1.8,1.66,3.71,2.58,5.78.31-.86.63-1.57.82-2.31,1-3.83,2.84-7.24,5.13-10.43,1.73-2.41,4.02-4.08,6.85-4.94,1.34-.41,2.76-.73,4.15-.79,4.38-.19,8.52.5,11.44,4.2,1.19,1.52,2.13,3.24,3.24,4.95.29-.11.63-.24.96-.37,4.41-1.79,9.07-.29,11.6,3.71.64,1.01,1.27,2.06,2.05,2.96,3.8,4.39,9.56,3.12,11.47-.88.62-1.3,1.49-2.49,2.23-3.74,2.43-4.1,4.87-8.2,7.27-12.32.68-1.16.59-1.32-.71-1.45Z"/><path d="m57.3,98.94c-.61-1.23-1.8-1.79-3.21-2.09-1.97-.42-4-.9-5.8-1.77-4.7-2.27-8.38-5.82-11.48-9.95-4.49-5.98-7.01-12.83-8.72-20.03-.97-4.07-1.5-8.16-.75-12.32.22-1.21.55-2.4,1.75-3.31.22.41.45.7.53,1.02.41,1.73.84,3.45,1.16,5.2,1.56,8.73,5.41,16.26,12.09,22.17,3.03,2.68,6.71,4.11,10.84,4.12.89,0,1.84-.06,2.07-1.17.53-2.62-.12-5.08-1.07-7.51-.75-1.93-2.25-2.82-4.09-3.5-3.32-1.22-6.38-2.92-8.44-5.91-2.33-3.39-4.46-6.94-5.54-10.94-1.04-3.87-1.69-7.85-2.55-11.77-.54-2.46-1.03-4.95-1.78-7.35-.66-2.09-2.21-3.43-4.49-3.57-2.22-.13-3.62,1.06-4.58,2.99-1.49,3-2.39,6.18-2.86,9.47-.42,2.96-.43,3.04-3.48,2.48-1.63-.3-3.21-.84-4.82-1.22-1.89-.45-3.05.12-3.55,1.94-.66,2.4-.64,4.87.14,7.24.57,1.75,1.5,2.16,3.29,1.71.92-.24,1.81-.67,2.74-.83,1.73-.3,3.48-.48,5.22-.7.55,3.99,1.06,7.63,1.59,11.43-.77.16-1.57.44-2.38.45-1.91.02-3.82-.11-5.73-.14-1.57-.02-2.62.76-2.71,2.31-.15,2.69.39,5.3,1.83,7.61.82,1.32,1.94,1.5,3.35.77.77-.4,1.47-.96,2.27-1.3,1.52-.63,3.08-1.19,4.65-1.68.27-.09.91.22,1.02.5,1.16,2.79,2.2,5.62,3.37,8.41.36.85.19,1.39-.61,1.68-1.32.49-2.65.95-4,1.34-1.11.32-2.28.45-3.38.81-1.18.39-1.78,1.4-1.54,2.55.6,2.82,1.93,5.29,4.11,7.22.84.74,1.85.74,2.76.06.56-.42,1-1,1.54-1.44,1.53-1.25,3.09-2.49,4.65-3.71.51-.4.86-.27,1.32.27,2.04,2.4,4.12,4.77,6.28,7.07.68.72.91,1.25.11,1.92-1.71,1.44-3.41,2.88-5.17,4.26-1.61,1.27-1.91,2.56-.64,4.16,1.54,1.96,3.52,3.4,5.86,4.29,1.39.53,2.43.08,3.1-1.24.28-.55.41-1.18.67-1.73.78-1.64,1.56-3.28,2.42-4.88.41-.76,1-.93,1.85-.41.98.6,2.06,1.09,3.15,1.47,2.73.95,5.5,1.63,8.43,1.06,1.17-.23,1.77-.94,1.41-2.03-.61-1.87-1.33-3.72-2.2-5.49Z"/><path d="m128.56,103.61c-.3-.48-.62-1.17-.51-1.67,1.39-6.23-3.91-14.45-12.49-14.28-2.15-.16-4.19.57-6.02,1.75-3.94,2.54-6.74,5.87-6.33,10.89.16,1.96-.1,3.54-1.62,4.88-.65.56-1.2,1.37-.72,2.32.49.96,1.4,1.25,2.42,1.2.53-.03,1.08-.08,1.59-.24,1.42-.44,2.84-.92,4.24-1.44,4.42-1.64,8.82-1.77,13.24.05,1.38.57,2.81,1,4.25,1.4.67.19,1.4.25,2.09.18,1.93-.19,2.55-1.57,1.44-3.12-.48-.67-1.13-1.23-1.57-1.92Z"/><path d="m24.54,25.65c2.26,1.72,3.55,1.74,5.87.1,3.25-2.3,5.64-5.39,6.88-9.1,1.14-3.41.81-6.95-1.39-9.97-2.47-3.39-7.13-4.93-11.16-3.67-4.01,1.26-7.68,4.04-7.59,10.33.22,1.17.27,2.41.7,3.5,1.41,3.54,3.65,6.5,6.69,8.82Z"/><path d="m40.57,12.06c.92.42,1.98.58,3,.68.88.09,1.78-.08,2.67-.14.06.09.12.17.18.26-1.19,1.12-2.45,2.17-3.54,3.38-1.45,1.63-2.87,3.31-4.1,5.11-.85,1.25-.49,1.94,1.03,2.07,2.06.17,4.14.22,6.2.08,3.07-.2,2.91-.34,3.76-3.2.98-3.32,2.33-6.54,3.41-9.84.75-2.31,1.55-4.65,1.86-7.03.34-2.63-1.27-3.9-3.88-3.27-4.07.98-7.78,2.89-11.27,5.13-2.62,1.68-2.15,5.49.69,6.78Z"/><path d="m15.58,23.44c1.32-.28,1.62-.81.85-1.91-1.3-1.86-2.75-3.61-4.23-5.33-1.04-1.21-2.22-2.29-3.33-3.42,1.1,0,2.13.06,3.16-.01,2.59-.19,4.34-1.53,4.73-3.52.42-2.13-.44-3.61-2.93-4.89-1.88-.96-3.78-1.91-5.72-2.76C6.74,1.01,5.34.45,3.89.14,1.25-.41-.29.96.05,3.63c.23,1.83.76,3.64,1.33,5.4,1.42,4.36,2.93,8.69,4.44,13.02.14.41.51.99.86,1.06,2.94.59,5.92.97,8.9.34Z"/><path d="m122.29,110.73c-.77-.31-1.65-.55-2.22-1.1-1.59-1.52-3.52-1.61-5.47-1.45-1.08.09-2.16.5-3.18.92-.78.32-1.4,1.04-2.19,1.32-1.65.57-2.35,1.74-2.17,3.33.25,2.09.57,4.19,1.13,6.21,1.08,3.9,2.49,5.23,7.22,5.37,3.05,0,5.09-.73,6.04-2.48,1.72-3.15,2.6-6.52,2.27-10.15-.09-.97-.53-1.6-1.44-1.97Z"/><path d="m86.6,111.35c-1.62-1.09-3.3-2.22-5.12-2.87-3.96-1.43-7.08.86-10.16,2.82-.49.31-.81,1.34-.73,1.99.28,2.33.55,4.69,1.2,6.94,1.05,3.61,2.19,4.88,7.47,5.14,2.06-.21,4.66-.31,5.97-2.96,1.41-2.86,2.15-5.92,1.99-9.13-.03-.67-.18-1.62-.62-1.92Z"/><path d="m84.48,155.56c-3.47-.13-6.96-.3-10.42-.12-2.05.11-2.65,1.18-2.2,3.19.34,1.53.87,3.02,1.41,4.49,1.37,3.69,1.88,4.02,5.84,4.02.04.11.07.23.11.34,1.25-.41,3.01-.44,3.66-1.3,1.91-2.52,3.01-5.5,3.17-8.73.05-1.07-.55-1.86-1.57-1.9Z"/><path d="m120.47,155.45c-1.69-.21-3.39-.27-5.26-.4-1.58.13-3.33.18-5.05.46-1.59.26-2.27,1.17-1.84,2.65.76,2.57,1.73,5.08,2.74,7.56.21.51.95,1.07,1.5,1.13,1.81.2,3.64.29,5.45.19.61-.04,1.47-.66,1.71-1.23,1.04-2.5,2.05-5.04,2.77-7.65.46-1.68-.27-2.47-2.04-2.7Z"/><path d="m81.91,128.85c-.16-.3-.74-.39-1.14-.54-.15-.06-.33,0-.49,0-.46,0-.91,0-1.37,0h0c-.66,0-1.34-.06-1.99.03-.41.06-.82.31-1.17.56-.65.47-1.21,1.06-1.87,1.49-.61.4-1.19.71-1.1,1.6.24,2.35.61,4.65,1.66,6.83.97,2,2.59,2.48,4.59,2.5,2.01.02,3.69-.61,4.39-2.57.68-1.89,1.06-3.88,1.59-5.83.73-2.67-2.26-2.54-3.09-4.06Z"/><path d="m121.51,131.71c-.01-.28-.04-.66-.22-.8-1.03-.85-2.1-1.66-3.19-2.45-.21-.15-.55-.14-.84-.15-.58-.02-1.16,0-2.04,0-2.44-.92-3.52,1.86-5.52,2.62-.16.06-.23.51-.24.78-.03,2.65.61,5.11,1.7,7.54,1.18,2.64,7.33,2.83,8.61-.02,1.09-2.43,1.87-4.85,1.73-7.52Z"/><path d="m117.22,143.4c-.51-.21-1.14-.15-1.71-.22,0,.02,0,.04,0,.06-.33,0-.67-.02-1,0-2.47.17-3.99,2.18-3.34,4.54.29,1.07.79,2.08,1.22,3.11,1.06,2.54,4.88,2.54,6.04.18.52-1.07.94-2.2,1.34-3.32.77-2.19-.36-3.45-2.54-4.36Z"/><path d="m81.57,143.81c-.69-.43-1.59-.53-2.4-.79-.02.07-.04.14-.07.21-.21,0-.42,0-.62,0-3.02.02-4.58,2.03-3.75,4.9.25.87.61,1.71,1,2.53.58,1.22,1.41,2.1,2.92,2.14,1.54.04,2.67-.55,3.36-1.9.45-.88.85-1.79,1.15-2.73.73-2.31.48-3.07-1.58-4.35Z"/></g></g></svg>