<?xml version="1.0" encoding="UTF-8"?><svg id="Ebene_2" xmlns="http://www.w3.org/2000/svg" viewBox="0 0 180.94 130.14"><g id="Ebene_1-2"><g id="vah_rudania"><path d="m130.48,80.28c-4.48.84-8.89,2.14-13.39,2.8-9.11,1.34-18.26,1.07-27.35-.26-6.32-.92-12.38-2.91-18.24-5.36-4.46-1.87-8.47-4.58-12.09-7.81-.66-.59-1.15-1.38-1.87-2.25,2.11-.43,3.63.29,5.18.84,2.11.75,4.16,1.75,6.32,2.27,9.72,2.32,19.57,3.8,29.55,4.43,7.95.5,15.88.51,23.79-.41,1.61-.19,3.27-.3,4.95-1.49-1.1-.76-1.94-1.54-2.92-1.98-2.08-.93-4.25-1.66-6.37-2.5-2-.8-4-1.62-5.97-2.49-.95-.42-1.3-1.13-.92-2.23.36-1.05.51-2.18.71-3.28.84-4.61-.99-8.61-4.86-10.65-6.12-3.23-14,.91-15.31,7.92-.45,2.43.14,4.3,2.17,5.6,1.81,1.16,3.73,2.14,5.61,3.19.39.22.81.38,1.21.57-.47.24-.84.29-1.19.23-3.49-.54-6.99-1-10.45-1.66-6.03-1.14-11.88-2.86-17.16-6.09-1.29-.79-2.32-.97-3.62-.07-3.11,2.15-6.6,2.43-10.3,1.58.25-.11.51-.23.76-.34,2.99-1.29,5.96-2.63,8.01-5.3,4.92-6.4,3.44-12.46-2.57-15.98-5.81-3.4-12.8-1.62-14.86,5.19-.14.46-.8.98-1.29,1.08-4.42.89-8.83.89-13.17-.53-.75-.24-1.51-.47-2.28-.61-.79-.15-1.37.14-1.58,1.01-1.05,4.45-3.73,7.89-6.88,11.04-2.01,2.02-2.01,2.04.05,3.99,2.78,2.63,4.95,5.59,5.42,9.52.13,1.06.65,1.28,1.63.77,2.43-1.27,4.89-2.44,7.72-2.63,3.98-.27,7.74.27,10.91,2.9,4.07,3.37,5.75,7.91,6.14,13.01.09,1.17.5,1.9,1.57,2.41,7.35,3.5,15.13,5.45,23.17,6.47,2.04.26,4.1.39,6.15.58-.82,6.74,3.78,10.9,8.71,11.59,5.42.76,12.28-2.55,13.33-9.14.15-.92.03-1.31-.91-1.41-1.89-.19-3.78-.42-5.67-.64.43-.27.87-.35,1.31-.43,6.41-1.18,12.89-2,19.07-4.23,5.02-1.81,9.83-4.04,14.35-6.87.54-.34.78-1.14,1.16-1.73-.6-.37-1.2-1.05-1.8-1.05-1.98-.01-4,.03-5.93.39Z"/><path d="m15.67,58.43c5.4-4.11,9.35-9.39,11.91-15.65,1.11-2.7-.14-4.58-3.02-5.13-3.06-.59-6.09-1.27-9.15-1.88-3.91-.77-7.83-1.51-10.72-2.06-4.14-.15-5.43,1.63-4.33,4.5.22.58.47,1.15.76,1.7,3.05,5.75,6.08,11.49,9.17,17.22,1.26,2.35,3.29,2.88,5.38,1.29Z"/><path d="m168.2,29.11c-.12-.52-.8-.92-1.23-1.38-.44.44-1,.82-1.29,1.35-.26.48-.27,1.12-.29,1.69-.1,3.57-.09,7.14-.26,10.7-.23,4.78-1.23,9.3-4.23,13.28-4.36,5.79-9.95,9.94-16.39,13.08-1.27.62-2.57,1.17-3.79,1.88-1.33.78-2.19,2.96-1.85,4.34.4,1.63,1.63,2.58,3.56,2.78,1.65.17,3.22-.09,4.71-.85,4.65-2.36,8.65-5.58,12.29-9.26,6.86-6.94,10.57-15.18,10.34-25.04-.14-2.03-.2-4.06-.45-6.08-.27-2.17-.65-4.34-1.13-6.48Z"/><path d="m41.61,70.57c-5.97.13-11.27,5-11.21,10.49.06,5.77,4.95,10.63,10.68,10.62,5.91-.01,11.11-4.76,10.91-10.2-.18-4.81-4.26-11.04-10.37-10.91Z"/><path d="m180.55,6.81c-.31-.49-.6-.99-.9-1.49-.47-.78-1.1-1.03-1.85-.4-1.78,1.48-2.83-.45-4.2-.87-1.17-.36-.49-1.18-.36-2.11-.17-.23-.35-.77-.72-.96-.8-.4-1.67-.68-2.54-.91-.94-.25-1.55.11-1.62,1.14-.04.69-.41.9-1.07.88-1.12-.03-2.25-.07-3.36.03-.88.08-1.36-.06-1.62-1.02-.11-.39-.88-.76-1.38-.82-.53-.07-1.13.21-1.67.4-1.18.41-1.98,1.01-1.46,2.49.11.3-.25,1.03-.56,1.16-1.23.51-1.95,2.12-3.6,1.7-.04,0-.07-.04-.1-.07-1-.83-1.8-.42-2.4.48-.41.61-.68,1.32-.95,2.01-.27.68-.06,1.15.68,1.47.49.21,1.06.6,1.25,1.06.49,1.17,1.34,1.85,2.46,2.31,1.52.62,1.92.5,2.7-.91,1.17-2.12,2.98-3.43,5.28-4.04,5.01-1.33,9.3.24,12.45,4.48.23.3.59.67.93.7,1.42.15,3.17-1.47,3.38-2.89.07-.51.35-1.15.74-1.41,1.05-.69,1.11-1.43.5-2.4Z"/><path d="m173.39,19c-5.19-2.79-10.44-2.57-15.61.08-1.31.67-1.3,1.35-.22,2.4.21.2.44.37.67.56,1.89,1.53,4.15,1.78,6.47,1.84,3.04.16,5.97-.27,8.63-1.84,1.95-1.16,2.01-1.98.06-3.03Z"/><path d="m51.02,15.65c.13.48.82.8,1,.97,2.58-.1,5.3-2.42,6.01-4.65.33-1.02.06-1.8-.93-2.07-2.19-.59-4.42-1.06-6.64-1.53-.63-.13-1.09.15-.93.9.47,2.14.9,4.28,1.49,6.39Z"/><path d="m113.66,122.58c-1.2,2-.6,5.71,1.14,7.23.35.3,1.29.44,1.59.2,2-1.57,3.91-3.27,5.86-4.93-1.27-1.3-5.43-3.42-6.93-3.42-.57,0-1.37.43-1.66.92Z"/><path d="m126.24,35.77c2.17-1.26,4.3-2.58,6.45-3.87,0-.21,0-.42,0-.64-2.01-1.29-4-2.59-6.02-3.85-.84-.52-1.49-.07-2.03.61-1.43,1.79-1.55,5.22-.28,7.15.49.74,1.13,1.04,1.9.6Z"/><path d="m64.36,30.5c-2.27.42-4.74,3.09-4.72,5.03,1.59.31,3.23.46,4.73.98,1.54.54,2.95,1.45,4.4,2.19.83-1.23.92-3.1.28-4.95-.76-2.21-2.78-3.61-4.69-3.26Z"/><path d="m9.11,89.62c-2.47-.22-4.93-.39-7.58-.6.07.68.05.98.14,1.24.65,1.83,1.28,3.67,2,5.46.52,1.29,1.13,1.5,2.48,1.09,1.98-.6,4.1-3.45,4.22-5.57.06-.97-.32-1.54-1.27-1.62Z"/><path d="m101.08,46.76c2.57-.25,5.1-.09,7.35,1.3,1.06.65,1.3.25,1.37-.72.02-.25.06-.49.08-.74.13-2.97-1.92-5.58-4.52-5.76-2.26-.16-5.56,2.95-5.52,5.21.02.9.62.77,1.24.71Z"/><path d="m102.33,107.32c-2.91,1.35-5.85,1.36-8.84.66-.83-.19-1.28.34-.93,1.07.7,1.48,1.39,3,2.38,4.28,1.05,1.34,2.69,1.44,4.23.88,2.34-.85,3.91-4.26,3.15-6.9Z"/><path d="m29.36,87.24c-2.92,2.85-3.19,6.42-.88,8.45,2.07,1.81,6,1.01,8.1-1.81-3.04-1.48-5.7-3.4-7.23-6.64Z"/><path d="m62.47,22.92c-1.62,1.07-2.3,2.66-2.44,4.53-.05,1.44.35,1.81,1.67,1.33,1.7-.62,3.39-.76,5.14-.37,1.15.25,1.34-.4,1.14-1.25-.38-1.65-1.14-3.12-2.51-4.18-.96-.74-1.99-.73-3.01-.06Z"/><path d="m23.21,91.46c-2.04.3-4.09,3.04-3.71,5.06.13.7.59,1.51,1.16,1.94,1.49,1.13,4.56.86,6.17-.44-1.39-1.76-2.46-3.69-2.61-6.02-.01-.21-.69-.58-1-.53Z"/><path d="m104.73,119.94c.43-.72.6-1.6.92-2.49-.33-.91-.59-1.82-.99-2.66-.39-.82-1-.92-1.65-.2-1.22,1.35-2.73,2.11-4.56,2.27-.94.08-1.19.73-.66,1.38.8.98,1.69,1.93,2.72,2.65,1.65,1.15,3.19.77,4.22-.95Z"/><path d="m107.2,38.7c1.25.67,2.39,1.55,3.54,2.39.42.31.73.76,1.07,1.11,2.39-1.17,2.72-5.18,1.01-6.83-.55-.53-1.75-.9-2.44-.68-1.29.4-2.53,1.16-3.6,2.01-1.02.81-.73,1.38.42,2Z"/><path d="m64.61,19.48c-.8-1.78-3.23-3.08-5.71-2.87.34,1.67.67,3.25.96,4.65,1.73-.65,3.25-1.22,4.75-1.79Z"/><path d="m119.5,32.49c-1.68-1.71-5.09-1.79-6.1-.45,1.02,1.33,1.95,2.54,3,3.9.95-1.06,2.03-2.26,3.1-3.45Z"/><path d="m12.15,95.88c1.64,2.61,3.82,3.9,5.3,3.4-.2-1.58-.4-3.14-.63-4.93-1.47.48-3,.98-4.67,1.52Z"/><path d="m107.59,120.95c-1.41,1.26-2.6,2.32-3.77,3.38,1.25,1.15,3.97,1.69,5.44.99.24-.11.5-.73.4-.93-.66-1.22-1.42-2.39-2.06-3.44Z"/></g></g></svg>