<?xml version="1.0" encoding="UTF-8"?><svg id="Ebene_2" xmlns="http://www.w3.org/2000/svg" viewBox="0 0 141.08 191.24"><g id="Ebene_1-2"><g id="vah_medoh"><path d="m88,103.36c-.47-5.01.59-9.82,2.32-14.49.38-1.03.31-1.75-.63-2.47-1.91-1.46-3.73-3.05-5.6-4.57-.36-.29-.78-.51-1.11-.72-.84,2.04-1.62,3.92-2.39,5.8-.15.02-.3.04-.45.05.26-5.31-2.87-8.47-6.68-10.9,1.96-3.73,4.12-7.12,5.58-10.79,3.02-7.56,2.58-14.97-2.28-21.75-2.05-2.86-4.36-5.53-6.62-8.22-1.66-1.97-1.75-2.56-.55-4.88,1.28-2.46,2.64-4.9,3.71-7.45,1.35-3.2,2.05-6.58,1.44-10.08-.47-2.69-2.75-5.19-4.95-5.5-1.99-.28-2.66.29-2.8,2.29-.16,2.36-.24,4.73-.57,7.06-.34,2.37-.89,4.71-1.49,7.03-.18.7-.81,1.29-1.42,2.22-.37-.91-.62-1.39-.76-1.9-.52-1.87-1.05-3.75-1.49-5.64-1.26-5.31-3.11-10.39-5.81-15.15-.76-1.33-1.72-2.41-3.19-3.01-1.53-.61-2.83-.27-4.06.71-1.19.95-.89,2.11-.56,3.3,2.24,8.22,3.76,16.55,4.38,25.06.9,12.39.37,24.7-1.51,36.97-1.04,6.77-2.4,13.46-5.3,19.74-.22.49-.02,1.29.22,1.84.49,1.14,1.23,2.17,1.71,3.31,2.06,4.91,1.08,9.82-2.57,13.47-.24.24-.35.83-.23,1.16,1.52,4.25,2.28,8.67,2.65,13.13.83,10.02.88,20.05.04,30.08-.63,7.48-1.56,14.94-3.54,22.19-1.45,5.3-3.35,10.49-5.05,15.72-.77,2.38,1.01,4.56,3.51,4.23,1.52-.2,2.94-.77,3.79-2.14,1.66-2.67,3.5-5.27,4.81-8.11,1.87-4.05,3.33-8.3,4.98-12.45.23-.58.62-1.09,1.01-1.77,1.4,1.63,1.61,3.4,1.69,5.11.18,3.93.2,7.87.27,11.81.03,1.66.36,2.02,2.02,2.05,2.6.06,5.4-2.34,5.99-5.43.79-4.21.25-8.34-1.35-12.31-.67-1.65-1.37-3.29-2.05-4.93-1.12-2.71-.96-3.51,1.3-5.38,3.19-2.64,5.96-5.65,8.4-8.99,2.35-3.21,3.61-6.79,3.95-10.71.44-5.06-.82-9.78-2.9-14.33-.91-1.99-1.86-3.97-2.82-6,4.34-2.16,8.32-4.65,11.33-8.44.12.07.25.14.37.21-.8,1.76-1.6,3.52-2.42,5.33.25-.01.51.03.73-.04,3.12-.89,5.57-2.9,8.06-4.84.2-.15.17-.71.1-1.05-.38-1.81-1.01-3.59-1.18-5.42Z"/><path d="m111.08,100.72c4.02.62,8.02,1.48,12.06,1.9,5.32.56,10.64.54,15.71-1.62.74-.31,1.44-.7,2.24-1.09-4.04-3.45-8.02-4.81-13.67-4.5-6.02.33-12.03.84-18.04,1.25-.41.03-.83-.05-1.59-.1,2.06-1.61,3.91-2.86,6.1-3.49,4.61-1.33,9.33-1.53,14.09-1.36,1.76.06,3.53,0,5.35,0-2.82-3.42-9.53-4.69-13.79-2.78-1.69.76-3.45,1.46-5.26,1.82-3.15.63-5.66,2-7.39,4.77-1.05,1.67-1.63,1.68-3.1.34-.21-.19-.37-.45-.56-.66-2.52-2.79-5.55-4.85-9.06-6.18-1.46-.55-1.93-.31-2.46,1.18-.53,1.48-.98,2.99-1.35,4.52-1.01,4.21-.92,8.39.64,12.47.56,1.45.98,1.75,2.45,1.38,1.64-.41,3.3-.87,4.83-1.57,2.23-1.02,4.16-2.49,5.02-4.93.31-.87.84-1.22,1.72-1.33.93-.12,1.36.34,1.76,1.04.98,1.71,2.35,3.06,4.21,3.72,3.47,1.24,6.93,2.5,10.48,3.47,3.6.99,6.88-.31,9.97-2.1.59-.34,1.08-.86,1.62-1.3-.56-.27-.93-.27-1.3-.27-3.82-.02-7.65.08-11.47-.08-4.12-.17-8.08-1.02-11.46-3.63-.32-.25-.59-.57-.88-.86,1.15-.19,2.15-.19,3.13-.04Z"/><path d="m39.96,105.85c-.4-1.01-.11-1.54.67-2.17,6.61-5.3,4.58-13.39-1.17-16.93-3.13-1.93-6.48-3.01-10.19-2.59-1.52.18-3.02.57-4.78.91,2.25,1.7,4.12,3.19,6.07,4.56.79.55,1.71,1,2.64,1.25,2.67.73,4.27,3.19,3.7,5.9-.59,2.84-3.16,4.57-6.15,4.16-3.1-.43-4.81-2.59-4.53-5.74.26-2.99.12-3.23-2.62-4.56-.48-.23-.99-.43-1.5-.6-3.86-1.27-7.84-1.34-11.84-1.08-2.45.16-4.72.98-6.82,2.21-1.35.79-2.57,1.76-3.43,3.17,2.26-.09,4.38-.35,6.46-.22,6.38.41,12.25,1.99,15.97,7.85.31.49.72.9,1.13,1.39-.45.78-.89,1.44-1.23,2.14-.15.3-.26.81-.11,1.03.92,1.35,2.17,2.28,3.83,2.51,1.43.2,1.84-.99,2.52-1.85.24-.3.74-.56,1.13-.55,1.07.01,2.15.26,3.22.25.79,0,1.07.22,1.22.99.46,2.26.6,2.4,2.9,2.08,2.71-.38,3.96-1.52,2.91-4.14Z"/><path d="m73.72,33.73c.37,1.83,3.5,3.1,5.1,2.1,2.65-1.66,4.75-3.87,6.28-6.58.41-.73.58-1.61.73-2.04,0-3.12-1.52-4.88-3.64-6.26-.91-.59-1.49-.3-2,.61-2.02,3.65-4.1,7.27-6.13,10.92-.21.37-.42.88-.34,1.26Z"/><path d="m73.23,158.72c-1.76-1.45-4.02-1.18-5.47.6-.51.62-.57,1.15-.18,1.9,1.07,2.05,2.07,4.14,3.02,6.25.76,1.69,1.41,3.44,2.11,5.16.29.71.62,1.21,1.57.9,2.38-.78,4.45-3.41,4.63-5.89-.18-.71-.24-1.48-.55-2.13-1.22-2.61-2.88-4.93-5.13-6.78Z"/><path d="m81.54,40.4c-.39.47-.55,1.49-.3,2.02.28.59,1.1.97,1.75,1.33.29.16.73.03.94.03,2.78.14,4.69-1.11,6.21-3.1,1.16-1.53,1.16-3.14.3-4.79-.61-1.16-1.23-1.31-2.31-.57-1.33.92-2.64,1.88-3.93,2.85-.92.7-1.93,1.36-2.65,2.23Z"/><path d="m78.04,150.81c-.97-.08-1.9.08-2.42,1.17-.55,1.16.02,2.01.81,2.74,1.57,1.47,3.18,2.91,4.8,4.32,1.93,1.68,3.35,1.18,3.73-1.41.13-.89.03-1.96-.38-2.74-1.32-2.57-3.43-4.08-6.54-4.08Z"/><path d="m81.49,141.85c-1.25-.14-1.95.64-2.32,1.81-.33,1.03-.46,2.16.61,2.78,1.49.87,3.08,1.6,4.68,2.27,1.08.45,1.88-.13,2.01-1.28.33-2.83-2.03-5.54-4.98-5.58Z"/><path d="m89.54,46.48c-1.42.44-2.83.93-4.19,1.51-1.53.66-1.86,1.43-1.47,2.94.4,1.58,1.14,2.15,2.73,2.12,2.61-.06,4.96-2.54,4.85-5.12-.05-1.32-.66-1.83-1.92-1.44Z"/></g></g></svg>