<?xml version="1.0" encoding="UTF-8"?><svg id="Ebene_2" xmlns="http://www.w3.org/2000/svg" viewBox="0 0 206.16 151.51"><g id="Ebene_1-2"><g id="vah_ruta"><path d="m191.95,82.49c-4.62-6.94-9.03-14.01-13.55-21.01-.35-.55-.27-.88.04-1.41,2-3.39,3.93-6.82,5.9-10.23.4-.69.37-1.27-.07-1.95-1.56-2.4-3.12-4.8-4.58-7.26-2.35-3.96-4.66-7.94-6.9-11.96-.46-.83-.99-.96-1.78-.96-5.41.01-10.82,0-16.23,0,0-.08,0-.17,0-.25-10.48.33-20.95.66-31.43,1-3.98.13-4.72.73-4.4,4.66.53,6.61,1.13,13.22,2.14,19.77.74,4.83.12,9.25-1.85,13.66-2.13,4.76-4,9.64-5.98,14.47-.5,1.22-.67,2.91-1.57,3.54-.97.67-2.64.37-4,.45-.87.06-1.75.12-2.62.06-4.12-.25-7.87,1-11.2,3.2-4.95,3.28-9.71,6.84-14.54,10.28-1.33.95-1.89,2.21-1.7,3.87.2,1.69.24,3.39.35,5.09.18,2.8,1.2,5.21,3.22,7.21,1.3,1.28,2.53,2.64,3.79,3.97,1.16,1.22,1.78,2.56,1.73,4.34-.12,4.02-.04,8.05-.04,12.07,0,2.6.62,3.4,3.16,3.38,7.23-.07,14.47-.19,21.69-.44,3.68-.13,3.47-.1,3.55-3.91.09-4.19-.14-8.39.1-12.57.24-4.16,2.34-7.44,6.06-9.39,2.04-1.07,4.29-1.8,6.51-2.44,5.22-1.49,10.51-1.84,15.68.17,5.64,2.2,9.61,6,10.3,12.28.34,3.08.17,6.21.22,9.31.02,1.53.04,3.07.03,4.6,0,1.2.55,1.67,1.75,1.69,5.74.08,11.48.25,17.22.3,2.24.02,4.49-.11,6.73-.28,1.89-.14,2.06-.3,2.13-2.18.14-3.56.2-7.13.24-10.7.03-3.07.92-5.79,2.65-8.39,2.96-4.45,5.74-9.04,8.43-13.66.88-1.5,1.61-3.26,1.78-4.96.28-2.66.1-5.38,0-8.08-.11-2.79-1.41-5.08-2.94-7.38Z"/><path d="m40.72,80.18c.38,1.08.54,2.25.7,3.39.17,1.27.41,1.52,1.65,1.31.41-.07.82-.16,1.21-.3,5.19-1.76,10.3-3.78,15.84-4.24.93-.08,1.26-.54,1.21-1.49-.25-4.75-1.97-8.85-5.22-12.33-1.73-1.85-3.66-3.58-5.01-5.68-3.96-6.11-4.88-12.89-3.47-19.95,1.21-6.08,4.64-10.96,9.11-15.1,2.84-2.63,6.28-4.01,10.25-3.78.99.06,2,.07,2.99-.04.86-.09,1.75-.26,2.52-.61,1.9-.87,2.51-2.54,2.46-4.5-.04-1.73-.94-3.05-2.77-3.56-2.91-.81-5.86-1.54-8.83-2.11-4.61-.88-9.25-1.62-13.88-2.37-2.16-.35-2.6-.15-3.29,1.51-3.13,7.58-6.29,15.15-9.31,22.78-1.01,2.56-1.96,5.23-2.36,7.94-.77,5.17.24,10.34.6,15.51.17,2.43.44,4.85.67,7.35-1.85.18-3.54.31-5.23.52-6.56.79-13.12,1.57-19.68,2.41-3.21.41-6.41.92-9.6,1.46-.46.08-.86.54-1.28.83.37.4.68.89,1.13,1.17.55.35,1.2.58,1.83.75,1.64.44,3.29.9,4.96,1.22,8.59,1.66,17.28,2.5,26.01,2.95,3.53.18,5.68,1.79,6.79,4.96Z"/><path d="m82.61,24.86c5.97,4.27,9.97,9.79,10.68,17.3.53,5.59-.08,10.93-3.57,15.62-1.14,1.53-2.2,3.11-3.34,4.64-1.23,1.64-1.38,3.27-.26,5.06,2.02,3.23,4.46,6.1,7.33,8.59,1.93,1.67,3.67,1.6,5.34-.32,2.04-2.35,4.15-4.69,5.77-7.32,4.58-7.43,6.97-15.54,6.86-24.35-.22-2.56-.21-5.16-.72-7.66-1.53-7.51-4.68-14.4-8.85-20.79-3.12-4.77-6.6-9.28-11.33-12.63-.78-.55-1.57-1.1-2.42-1.52-1.38-.68-2.02-.48-2.78.83-.46.78-.86,1.62-1.14,2.48-1.37,4.25-2.68,8.53-4.04,12.79-1.46,4.54-1.44,4.49,2.47,7.28Z"/><path d="m84.41,44.71c-.02-8.25-6.7-15.43-14.25-15.53-9.35-.12-16.43,7.62-16.2,14.85-.09,9.02,7.53,14.82,15.03,14.94,8.37.14,15.43-6.54,15.42-14.27Z"/><path d="m61.78,129.56c-2.94-.52-5.86-1.11-8.76-1.81-1.01-.24-1.78-.28-2.67.36-.46.33-1.31.51-1.83.33-3.9-1.38-7.25-.2-10.17,2.3-2.07,1.77-3.53,4.05-2.99,6.99.86,4.73,7.51,7.63,11.88,5.35,1.14-.6,2.6-.67,3.94-.79,1.55-.14,2.72.55,3.32,2.06.07.18.27.31.42.45,2.79,2.7,8.14,1.49,9.72-2.29.56-1.35.74-2.86,1.15-4.54-.52-2.12-1.05-4.36-1.61-6.6-.31-1.22-1.21-1.59-2.39-1.8Z"/><path d="m100,3.61c1.46,1.29,3.1,2.44,4.34,3.91,3.42,4.06,6.81,8.15,9.92,12.44,1.62,2.24,3.49,3.29,6.16,3.2.62-.02,1.25.02,1.87,0,1.95-.06,2.48-.48,2.56-2.41.09-2.28.02-4.56.02-6.84.04,0,.08,0,.12,0-.12-2.28-.22-4.56-.36-6.83-.11-1.73-.68-2.38-2.19-2.71-5.63-1.24-11.26-2.52-16.89-3.72-1.58-.34-3.2-.61-4.8-.64-.75-.02-1.81.38-2.22.95-.62.86.31,1.56.91,2.19.17.18.39.31.58.47Z"/><path d="m184.33,144.31c-.33-1.5-1.38-2.1-3.05-2.09-8.98.08-17.96.04-26.93.04-2.45,0-4.02,1.27-4.29,3.73-.18,1.67-.03,3.37-.03,5.24.65,0,1.05,0,1.46,0,8.44.03,16.87.05,25.31.1,2.41.01,4.82.12,7.23.18.69.02,1.35-.14,1.25-.99-.26-2.08-.5-4.17-.95-6.21Z"/><path d="m118.63,146.58c-.04-3.11-1.18-4.25-4.31-4.28-2.74-.02-5.48,0-8.22,0-5.98.01-11.96.02-17.95.06-.86,0-1.78.08-2.57.38-.56.21-1.27.81-1.36,1.34-.36,2.14-.52,4.31-.78,6.81,2.36,0,4.31,0,6.25,0,6.77.02,13.55.06,20.32.08,2.45,0,4.89-.03,7.34.01,1.06.02,1.37-.44,1.3-1.42-.07-.99,0-1.99-.02-2.98Z"/><path d="m132.21,22.39c.02.7.15,1.04.96,1.07,4.28.15,8.56.37,12.84.54,1.73.07,2.43-.36,2.71-2.03.55-3.24.82-6.5.16-9.77-.26-1.31-.97-2.14-2.32-2.43-3.33-.72-6.64-1.49-9.97-2.23-1.6-.36-3.21-.7-5.1-1.1.15,1.17.32,1.98.35,2.79.14,4.39.27,8.78.36,13.17Z"/><path d="m204.08,58.85c-3.9-.29-7.8-.52-10.97-.73-2.23,0-3.72,0-5.22,0-3.2.01-3.81.84-2.12,3.55,2.32,3.73,4.87,7.31,7.42,10.89,1.04,1.45,1.43,1.47,2.64.18,3.18-3.38,6.27-6.86,9.39-10.3.17-.18.29-.41.41-.62,1.05-1.84.57-2.81-1.55-2.97Z"/><path d="m45.75,90.92c.32,1.73.7,3.46,1.21,5.15.31,1.01,1.18,1.39,2.27,1.38,4.19-.03,8.28-.69,12.28-1.88,3.45-1.03,3.63-1.3,3.64-5.12.05-1.82-.26-3.8-1.34-5.61-.59-.99-1.4-1.48-2.49-1.05-4.98,1.96-9.94,3.95-14.89,5.99-.34.14-.74.79-.68,1.13Z"/><path d="m65.32,99.09c-1.67.62-3.3,1.38-5.02,1.82-3,.78-6.04,1.42-9.09,2.02-1.11.22-1.76.57-1.52,1.83.28,1.42.47,2.85.75,4.27.21,1.04.83,1.68,1.95,1.75,1.57.11,3.14.24,4.71.37.02.07.04.15.06.22,2.68-.48,5.37-.95,8.05-1.44,1.08-.2,1.7-.89,1.74-1.97.09-2.6.21-5.2.17-7.79-.02-1.34-.53-1.54-1.8-1.07Z"/><path d="m153.89,20.96c-.05,3.2-.14,3.23,3.1,3.4,2.32.12,4.65.15,6.98.17,1.08,0,1.86-.57,2.04-1.65.25-1.5.53-3.02.52-4.54,0-1.43-.67-2.63-2.18-3.17-3.17-1.12-6.32-2.28-9.49-3.4-.34-.12-.72-.12-1.22-.19,0,.57-.01.93,0,1.3.09,2.69.29,5.39.25,8.08Z"/><path d="m66.4,114.23c-4.22,1.28-8.51,1.85-12.92,1.44-.8-.08-1.21.36-1.26,1.05-.08,1.07-.07,2.15-.03,3.22.05,1.49.81,2.6,2.27,2.89,2.14.43,4.33.97,6.49.9,4.34-.14,4.86.16,5.71-5.31.21-1.36.18-2.75.26-4.07-.37-.08-.46-.13-.52-.11Z"/></g></g></svg>